<svg width="266" height="381" viewBox="0 0 266 381" fill="none" xmlns="http://www.w3.org/2000/svg">
<path d="M196.925 219.271C167.99 244.813 44.4693 239.026 47.6621 219.67C58.4377 153.819 61.0319 228.849 33.8932 179.96C27.9067 169.184 42.2742 162 51.8526 156.213C32.0972 134.861 36.4873 168.585 45.6666 145.038C44.8684 144.839 25.3125 145.837 25.3125 145.837C44.4693 138.852 29.3035 145.438 25.3125 139.85C18.3283 130.272 130.675 90.5615 134.666 86.3709C130.675 85.1736 110.52 88.9651 107.327 85.1736C150.031 48.8557 422.615 -34.1569 461.328 15.3314C453.745 22.9142 301.289 58.434 300.292 55.6403C344.392 62.2255 405.853 32.2931 449.954 58.8331C444.965 66.2165 430.996 66.2165 425.21 69.8083C433.591 78.1894 503.233 75.7948 502.236 89.5637C500.639 110.516 422.416 106.725 416.629 126.68C433.391 126.68 517.401 123.687 518 133.664C432.194 133.664 338.206 219.271 196.925 219.271Z" fill="#F5F9FF"/>
<path d="M192.023 326.83C193.115 326.83 194 325.945 194 324.853C194 323.761 193.115 322.876 192.023 322.876C190.93 322.876 190.045 323.761 190.045 324.853C190.045 325.945 190.93 326.83 192.023 326.83Z" fill="#C8CEE3"/>
<path d="M187.573 317.932C188.665 317.932 189.551 317.047 189.551 315.955C189.551 314.862 188.665 313.977 187.573 313.977C186.481 313.977 185.596 314.862 185.596 315.955C185.596 317.047 186.481 317.932 187.573 317.932Z" fill="#C8CEE3"/>
<path d="M191.232 308.935C191.034 308.341 190.737 307.748 190.539 307.155C190.441 306.957 190.342 306.661 190.243 306.463C190.144 306.661 190.144 306.957 190.144 307.155C190.045 307.847 190.539 308.539 191.232 308.935Z" fill="#C8CEE3"/>
<path d="M190.045 342.65C190.045 343.737 190.935 344.627 192.023 344.627H192.121C192.22 343.935 192.319 343.342 192.517 342.65C192.616 342.057 192.715 341.463 192.814 340.87C192.616 340.771 192.319 340.672 192.023 340.672C190.935 340.672 190.045 341.562 190.045 342.65Z" fill="#C8CEE3"/>
<path d="M187.573 335.729C188.665 335.729 189.551 334.844 189.551 333.751C189.551 332.659 188.665 331.774 187.573 331.774C186.481 331.774 185.596 332.659 185.596 333.751C185.596 334.844 186.481 335.729 187.573 335.729Z" fill="#C8CEE3"/>
<path d="M187.573 353.526C188.665 353.526 189.551 352.64 189.551 351.548C189.551 350.456 188.665 349.571 187.573 349.571C186.481 349.571 185.596 350.456 185.596 351.548C185.596 352.64 186.481 353.526 187.573 353.526Z" fill="#C8CEE3"/>
<path d="M187.573 367.368C186.486 367.368 185.596 368.258 185.596 369.345C185.596 370.433 186.486 371.323 187.573 371.323C188.562 371.323 189.353 370.631 189.551 369.741C189.551 369.444 189.551 369.049 189.452 368.752C189.155 367.961 188.463 367.368 187.573 367.368Z" fill="#C8CEE3"/>
<path d="M183.124 309.033C184.216 309.033 185.102 308.148 185.102 307.056C185.102 305.964 184.216 305.079 183.124 305.079C182.032 305.079 181.147 305.964 181.147 307.056C181.147 308.148 182.032 309.033 183.124 309.033Z" fill="#C8CEE3"/>
<path d="M174.226 305.079C173.138 305.079 172.248 305.968 172.248 307.056C172.842 307.649 173.336 308.243 173.731 308.935C173.83 308.935 174.028 309.033 174.226 309.033C175.313 309.033 176.203 308.144 176.203 307.056C176.203 305.968 175.313 305.079 174.226 305.079Z" fill="#C8CEE3"/>
<path d="M186.486 299.838C186.189 299.443 185.893 299.047 185.596 298.652C185.794 299.146 186.09 299.542 186.486 299.838Z" fill="#C8CEE3"/>
<path d="M178.675 300.135C179.767 300.135 180.652 299.25 180.652 298.158C180.652 297.066 179.767 296.18 178.675 296.18C177.583 296.18 176.698 297.066 176.698 298.158C176.698 299.25 177.583 300.135 178.675 300.135Z" fill="#C8CEE3"/>
<path d="M169.777 300.135C170.869 300.135 171.754 299.25 171.754 298.158C171.754 297.066 170.869 296.18 169.777 296.18C168.684 296.18 167.799 297.066 167.799 298.158C167.799 299.25 168.684 300.135 169.777 300.135Z" fill="#C8CEE3"/>
<path d="M174.226 291.237C175.017 291.237 175.61 290.841 176.005 290.149C175.412 289.852 174.819 289.556 174.226 289.259C173.632 288.963 173.039 288.666 172.446 288.468C172.347 288.666 172.248 288.963 172.248 289.259C172.248 290.347 173.138 291.237 174.226 291.237Z" fill="#C8CEE3"/>
<path d="M183.124 326.83C184.216 326.83 185.102 325.945 185.102 324.853C185.102 323.761 184.216 322.876 183.124 322.876C182.032 322.876 181.147 323.761 181.147 324.853C181.147 325.945 182.032 326.83 183.124 326.83Z" fill="#C8CEE3"/>
<path d="M178.675 313.977C177.884 313.977 177.192 314.471 176.895 315.164C177.192 315.955 177.389 316.746 177.587 317.635C177.884 317.833 178.279 317.932 178.675 317.932C179.762 317.932 180.652 317.042 180.652 315.955C180.652 314.867 179.762 313.977 178.675 313.977Z" fill="#C8CEE3"/>
<path d="M183.124 344.627C184.216 344.627 185.102 343.742 185.102 342.65C185.102 341.558 184.216 340.672 183.124 340.672C182.032 340.672 181.147 341.558 181.147 342.65C181.147 343.742 182.032 344.627 183.124 344.627Z" fill="#C8CEE3"/>
<path d="M178.675 331.774C178.477 331.774 178.378 331.774 178.181 331.873C178.082 333.059 177.884 334.345 177.785 335.531C178.082 335.63 178.378 335.729 178.675 335.729C179.763 335.729 180.652 334.839 180.652 333.751C180.652 332.664 179.763 331.774 178.675 331.774Z" fill="#C8CEE3"/>
<path d="M183.124 362.424C184.216 362.424 185.102 361.539 185.102 360.447C185.102 359.355 184.216 358.469 183.124 358.469C182.032 358.469 181.147 359.355 181.147 360.447C181.147 361.539 182.032 362.424 183.124 362.424Z" fill="#C8CEE3"/>
<path d="M174.324 358.469C174.226 359.161 174.226 359.755 174.127 360.447C174.028 361.139 174.028 361.732 174.028 362.424C174.127 362.424 174.127 362.424 174.226 362.424C175.313 362.424 176.203 361.534 176.203 360.447C176.203 359.458 175.313 358.568 174.324 358.469Z" fill="#C8CEE3"/>
<path d="M178.675 353.526C179.767 353.526 180.652 352.64 180.652 351.548C180.652 350.456 179.767 349.571 178.675 349.571C177.583 349.571 176.698 350.456 176.698 351.548C176.698 352.64 177.583 353.526 178.675 353.526Z" fill="#C8CEE3"/>
<path d="M183.124 380.221C184.216 380.221 185.102 379.336 185.102 378.244C185.102 377.152 184.216 376.266 183.124 376.266C182.032 376.266 181.147 377.152 181.147 378.244C181.147 379.336 182.032 380.221 183.124 380.221Z" fill="#C8CEE3"/>
<path d="M174.522 376.365C174.621 376.958 174.621 377.453 174.72 378.046C174.72 378.145 174.72 378.244 174.819 378.343C174.918 378.936 175.116 379.43 175.412 379.924C175.907 379.529 176.203 379.035 176.203 378.343C176.203 377.255 175.412 376.464 174.522 376.365Z" fill="#C8CEE3"/>
<path d="M178.675 371.323C179.767 371.323 180.652 370.437 180.652 369.345C180.652 368.253 179.767 367.368 178.675 367.368C177.583 367.368 176.698 368.253 176.698 369.345C176.698 370.437 177.583 371.323 178.675 371.323Z" fill="#C8CEE3"/>
<path d="M165.327 291.237C166.419 291.237 167.305 290.351 167.305 289.259C167.305 288.167 166.419 287.282 165.327 287.282C164.235 287.282 163.35 288.167 163.35 289.259C163.35 290.351 164.235 291.237 165.327 291.237Z" fill="#C8CEE3"/>
<path d="M156.429 291.237C157.521 291.237 158.406 290.351 158.406 289.259C158.406 288.167 157.521 287.282 156.429 287.282C155.336 287.282 154.451 288.167 154.451 289.259C154.451 290.351 155.336 291.237 156.429 291.237Z" fill="#C8CEE3"/>
<path d="M160.878 300.135C161.97 300.135 162.855 299.25 162.855 298.158C162.855 297.066 161.97 296.18 160.878 296.18C159.786 296.18 158.9 297.066 158.9 298.158C158.9 299.25 159.786 300.135 160.878 300.135Z" fill="#C8CEE3"/>
<path d="M151.979 300.135C153.071 300.135 153.957 299.25 153.957 298.158C153.957 297.066 153.071 296.18 151.979 296.18C150.887 296.18 150.002 297.066 150.002 298.158C150.002 299.25 150.887 300.135 151.979 300.135Z" fill="#C8CEE3"/>
<path d="M147.926 289.259C147.234 289.556 146.443 289.852 145.75 290.149C146.047 290.841 146.739 291.237 147.53 291.237C148.618 291.237 149.508 290.347 149.508 289.259C149.508 289.061 149.508 288.864 149.409 288.765C148.914 288.963 148.42 289.061 147.926 289.259Z" fill="#C8CEE3"/>
<path d="M147.53 305.079C146.443 305.079 145.553 305.968 145.553 307.056C145.553 307.254 145.553 307.452 145.652 307.649C146.047 307.452 146.344 307.254 146.739 307.056C147.53 306.661 148.321 306.265 149.112 305.87C148.717 305.375 148.123 305.079 147.53 305.079Z" fill="#C8CEE3"/>
<path d="M138.632 309.033C139.724 309.033 140.609 308.148 140.609 307.056C140.609 305.964 139.724 305.079 138.632 305.079C137.54 305.079 136.655 305.964 136.655 307.056C136.655 308.148 137.54 309.033 138.632 309.033Z" fill="#C8CEE3"/>
<path d="M143.081 300.135C144.173 300.135 145.059 299.25 145.059 298.158C145.059 297.066 144.173 296.18 143.081 296.18C141.989 296.18 141.104 297.066 141.104 298.158C141.104 299.25 141.989 300.135 143.081 300.135Z" fill="#C8CEE3"/>
<path d="M134.183 296.18C134.084 296.18 133.985 296.18 133.985 296.18C133.491 296.477 133.095 296.773 132.601 296.971C132.403 297.268 132.205 297.663 132.205 298.059C132.205 299.146 133.095 300.036 134.183 300.036C135.27 300.036 136.16 299.146 136.16 298.059C136.16 297.07 135.27 296.18 134.183 296.18Z" fill="#C8CEE3"/>
<path d="M129.734 309.033C130.826 309.033 131.711 308.148 131.711 307.056C131.711 305.964 130.826 305.079 129.734 305.079C128.641 305.079 127.756 305.964 127.756 307.056C127.756 308.148 128.641 309.033 129.734 309.033Z" fill="#C8CEE3"/>
<path d="M120.835 309.033C121.927 309.033 122.812 308.148 122.812 307.056C122.812 305.964 121.927 305.079 120.835 305.079C119.743 305.079 118.857 305.964 118.857 307.056C118.857 308.148 119.743 309.033 120.835 309.033Z" fill="#C8CEE3"/>
<path d="M132.205 315.559C132.897 315.164 133.491 314.768 134.183 314.373C134.38 314.274 134.479 314.175 134.677 314.076C134.479 314.076 134.38 313.977 134.183 313.977C133.194 313.977 132.403 314.669 132.205 315.559Z" fill="#C8CEE3"/>
<path d="M125.284 317.932C126.376 317.932 127.262 317.047 127.262 315.955C127.262 314.862 126.376 313.977 125.284 313.977C124.192 313.977 123.307 314.862 123.307 315.955C123.307 317.047 124.192 317.932 125.284 317.932Z" fill="#C8CEE3"/>
<path d="M116.386 317.932C117.478 317.932 118.363 317.047 118.363 315.955C118.363 314.862 117.478 313.977 116.386 313.977C115.294 313.977 114.408 314.862 114.408 315.955C114.408 317.047 115.294 317.932 116.386 317.932Z" fill="#C8CEE3"/>
<path d="M103.038 184.455C104.13 184.455 105.015 183.57 105.015 182.478C105.015 181.386 104.13 180.5 103.038 180.5C101.946 180.5 101.061 181.386 101.061 182.478C101.061 183.57 101.946 184.455 103.038 184.455Z" fill="#C8CEE3"/>
<path d="M108.575 171.997C108.278 171.8 107.883 171.701 107.487 171.701C106.4 171.701 105.51 172.591 105.51 173.678C105.51 174.766 106.4 175.656 107.487 175.656C108.575 175.656 109.465 174.766 109.465 173.678C109.465 173.48 109.465 173.283 109.366 173.085C109.069 172.689 108.871 172.294 108.575 171.997Z" fill="#C8CEE3"/>
<path d="M98.5888 175.557C99.6809 175.557 100.566 174.671 100.566 173.579C100.566 172.487 99.6809 171.602 98.5888 171.602C97.4967 171.602 96.6113 172.487 96.6113 173.579C96.6113 174.671 97.4967 175.557 98.5888 175.557Z" fill="#C8CEE3"/>
<path d="M103.038 202.252C104.13 202.252 105.015 201.367 105.015 200.275C105.015 199.183 104.13 198.297 103.038 198.297C101.946 198.297 101.061 199.183 101.061 200.275C101.061 201.367 101.946 202.252 103.038 202.252Z" fill="#C8CEE3"/>
<path d="M107.487 193.354C108.579 193.354 109.465 192.468 109.465 191.376C109.465 190.284 108.579 189.399 107.487 189.399C106.395 189.399 105.51 190.284 105.51 191.376C105.51 192.468 106.395 193.354 107.487 193.354Z" fill="#C8CEE3"/>
<path d="M98.5888 189.399C98.5888 189.399 98.49 189.399 98.5888 189.399C98.49 190.783 98.49 192.068 98.2922 193.354C98.3911 193.354 98.49 193.354 98.5888 193.354C99.6764 193.354 100.566 192.464 100.566 191.376C100.566 190.289 99.6764 189.399 98.5888 189.399Z" fill="#C8CEE3"/>
<path d="M111.936 184.455C112.629 184.455 113.123 184.159 113.518 183.664C113.419 183.269 113.419 182.873 113.321 182.478C113.222 181.884 113.024 181.291 112.925 180.797C112.629 180.599 112.332 180.5 111.936 180.5C110.849 180.5 109.959 181.39 109.959 182.478C109.959 183.565 110.849 184.455 111.936 184.455Z" fill="#C8CEE3"/>
<path d="M103.038 220.049C104.13 220.049 105.015 219.164 105.015 218.072C105.015 216.979 104.13 216.094 103.038 216.094C101.946 216.094 101.061 216.979 101.061 218.072C101.061 219.164 101.946 220.049 103.038 220.049Z" fill="#C8CEE3"/>
<path d="M107.487 211.151C108.579 211.151 109.465 210.265 109.465 209.173C109.465 208.081 108.579 207.196 107.487 207.196C106.395 207.196 105.51 208.081 105.51 209.173C105.51 210.265 106.395 211.151 107.487 211.151Z" fill="#C8CEE3"/>
<path d="M98.5888 211.151C99.6809 211.151 100.566 210.265 100.566 209.173C100.566 208.081 99.6809 207.196 98.5888 207.196C97.4967 207.196 96.6113 208.081 96.6113 209.173C96.6113 210.265 97.4967 211.151 98.5888 211.151Z" fill="#C8CEE3"/>
<path d="M111.936 202.252C112.332 202.252 112.727 202.153 113.024 201.955C113.123 201.362 113.222 200.868 113.222 200.275C113.321 199.879 113.321 199.385 113.419 198.989C113.024 198.594 112.53 198.297 111.936 198.297C110.849 198.297 109.959 199.187 109.959 200.275C109.959 201.362 110.849 202.252 111.936 202.252Z" fill="#C8CEE3"/>
<path d="M103.038 237.846C104.13 237.846 105.015 236.961 105.015 235.868C105.015 234.776 104.13 233.891 103.038 233.891C101.946 233.891 101.061 234.776 101.061 235.868C101.061 236.961 101.946 237.846 103.038 237.846Z" fill="#C8CEE3"/>
<path d="M106.993 228.947C107.289 227.662 107.685 226.377 107.982 225.19C107.784 225.091 107.586 225.091 107.487 225.091C106.4 225.091 105.51 225.981 105.51 227.069C105.51 227.959 106.103 228.651 106.993 228.947Z" fill="#C8CEE3"/>
<path d="M98.5888 228.947C99.6809 228.947 100.566 228.062 100.566 226.97C100.566 225.878 99.6809 224.993 98.5888 224.993C97.4967 224.993 96.6113 225.878 96.6113 226.97C96.6113 228.062 97.4967 228.947 98.5888 228.947Z" fill="#C8CEE3"/>
<path d="M98.5888 246.744C99.6809 246.744 100.566 245.859 100.566 244.767C100.566 243.675 99.6809 242.789 98.5888 242.789C97.4967 242.789 96.6113 243.675 96.6113 244.767C96.6113 245.859 97.4967 246.744 98.5888 246.744Z" fill="#C8CEE3"/>
<path d="M111.936 322.876C110.849 322.876 109.959 323.765 109.959 324.853C109.959 325.644 110.453 326.336 111.145 326.633C111.442 326.534 111.838 326.435 112.134 326.336C112.727 326.138 113.222 325.941 113.815 325.644C113.914 325.446 114.013 325.15 114.013 324.853C113.914 323.765 113.024 322.876 111.936 322.876Z" fill="#C8CEE3"/>
<path d="M103.038 326.83C104.13 326.83 105.015 325.945 105.015 324.853C105.015 323.761 104.13 322.876 103.038 322.876C101.946 322.876 101.061 323.761 101.061 324.853C101.061 325.945 101.946 326.83 103.038 326.83Z" fill="#C8CEE3"/>
<path d="M107.487 317.932C108.579 317.932 109.465 317.047 109.465 315.955C109.465 314.862 108.579 313.977 107.487 313.977C106.395 313.977 105.51 314.862 105.51 315.955C105.51 317.047 106.395 317.932 107.487 317.932Z" fill="#C8CEE3"/>
<path d="M98.5888 317.932C99.6809 317.932 100.566 317.047 100.566 315.955C100.566 314.862 99.6809 313.977 98.5888 313.977C97.4967 313.977 96.6113 314.862 96.6113 315.955C96.6113 317.047 97.4967 317.932 98.5888 317.932Z" fill="#C8CEE3"/>
<path d="M92.7553 163.297C92.3599 163.692 92.1621 164.186 92.1621 164.681C92.1621 165.768 93.052 166.658 94.1395 166.658C95.2271 166.658 96.117 165.768 96.117 164.681C96.117 164.384 96.0181 164.186 95.9192 163.89C94.9305 163.692 93.8429 163.396 92.7553 163.297Z" fill="#C8CEE3"/>
<path d="M86.2298 163C85.5377 163 84.7468 163.099 84.0546 163.198C83.5603 163.593 83.2637 164.088 83.2637 164.78C83.2637 165.867 84.1535 166.757 85.2411 166.757C86.3287 166.757 87.2185 165.867 87.2185 164.78C87.2185 163.989 86.8231 163.297 86.2298 163Z" fill="#C8CEE3"/>
<path d="M89.6903 175.557C90.7824 175.557 91.6678 174.671 91.6678 173.579C91.6678 172.487 90.7824 171.602 89.6903 171.602C88.5982 171.602 87.7129 172.487 87.7129 173.579C87.7129 174.671 88.5982 175.557 89.6903 175.557Z" fill="#C8CEE3"/>
<path d="M80.7919 175.557C81.884 175.557 82.7693 174.671 82.7693 173.579C82.7693 172.487 81.884 171.602 80.7919 171.602C79.6998 171.602 78.8145 172.487 78.8145 173.579C78.8145 174.671 79.6998 175.557 80.7919 175.557Z" fill="#C8CEE3"/>
<path d="M94.1396 216.094C94.0407 216.094 94.0407 216.094 93.9418 216.094C93.7441 216.786 93.6452 217.379 93.4475 218.072C93.4475 218.17 93.3486 218.269 93.3486 218.368C93.2497 218.862 93.1509 219.258 92.9531 219.752C93.2497 219.95 93.6452 220.049 94.0407 220.049C95.1283 220.049 96.0181 219.159 96.0181 218.072C96.117 216.984 95.2272 216.094 94.1396 216.094Z" fill="#C8CEE3"/>
<path d="M94.1395 237.846C95.2317 237.846 96.117 236.961 96.117 235.868C96.117 234.776 95.2317 233.891 94.1395 233.891C93.0474 233.891 92.1621 234.776 92.1621 235.868C92.1621 236.961 93.0474 237.846 94.1395 237.846Z" fill="#C8CEE3"/>
<path d="M90.679 228.75C91.2722 228.453 91.6677 227.761 91.6677 227.069C91.6677 226.673 91.5688 226.377 91.3711 226.08C91.1733 226.871 90.8767 227.86 90.679 228.75Z" fill="#C8CEE3"/>
<path d="M94.1395 255.643C95.2317 255.643 96.117 254.757 96.117 253.665C96.117 252.573 95.2317 251.688 94.1395 251.688C93.0474 251.688 92.1621 252.573 92.1621 253.665C92.1621 254.757 93.0474 255.643 94.1395 255.643Z" fill="#C8CEE3"/>
<path d="M85.2411 251.688C84.8456 251.688 84.549 251.787 84.2524 251.985C84.1535 252.578 83.9558 253.072 83.8569 253.665C83.7581 253.962 83.6592 254.357 83.6592 254.654C83.9558 255.247 84.6479 255.643 85.34 255.643C86.4276 255.643 87.3174 254.753 87.3174 253.665C87.2186 252.578 86.3287 251.688 85.2411 251.688Z" fill="#C8CEE3"/>
<path d="M89.6903 246.744C90.7824 246.744 91.6678 245.859 91.6678 244.767C91.6678 243.675 90.7824 242.789 89.6903 242.789C88.5982 242.789 87.7129 243.675 87.7129 244.767C87.7129 245.859 88.5982 246.744 89.6903 246.744Z" fill="#C8CEE3"/>
<path d="M85.2411 273.44C86.3332 273.44 87.2185 272.554 87.2185 271.462C87.2185 270.37 86.3332 269.485 85.2411 269.485C84.149 269.485 83.2637 270.37 83.2637 271.462C83.2637 272.554 84.149 273.44 85.2411 273.44Z" fill="#C8CEE3"/>
<path d="M98.2922 260.685C97.3034 260.784 96.6113 261.674 96.6113 262.663C96.6113 263.355 96.9079 263.948 97.4023 264.245C97.6989 263.058 97.9955 261.872 98.2922 260.685Z" fill="#C8CEE3"/>
<path d="M89.6903 264.541C90.7824 264.541 91.6678 263.656 91.6678 262.564C91.6678 261.472 90.7824 260.586 89.6903 260.586C88.5982 260.586 87.7129 261.472 87.7129 262.564C87.7129 263.656 88.5982 264.541 89.6903 264.541Z" fill="#C8CEE3"/>
<path d="M81.9782 260.982C81.7805 261.971 81.4839 262.959 81.2861 263.948C81.2861 264.146 81.1873 264.343 81.1873 264.442C82.0771 264.245 82.7692 263.454 82.7692 262.465C82.7692 261.971 82.4726 261.377 81.9782 260.982Z" fill="#C8CEE3"/>
<path d="M85.2411 291.237C86.3332 291.237 87.2185 290.351 87.2185 289.259C87.2185 288.167 86.3332 287.282 85.2411 287.282C84.149 287.282 83.2637 288.167 83.2637 289.259C83.2637 290.351 84.149 291.237 85.2411 291.237Z" fill="#C8CEE3"/>
<path d="M89.6903 282.338C90.7824 282.338 91.6678 281.453 91.6678 280.361C91.6678 279.269 90.7824 278.383 89.6903 278.383C88.5982 278.383 87.7129 279.269 87.7129 280.361C87.7129 281.453 88.5982 282.338 89.6903 282.338Z" fill="#C8CEE3"/>
<path d="M80.7919 282.338C81.884 282.338 82.7693 281.453 82.7693 280.361C82.7693 279.269 81.884 278.383 80.7919 278.383C79.6998 278.383 78.8145 279.269 78.8145 280.361C78.8145 281.453 79.6998 282.338 80.7919 282.338Z" fill="#C8CEE3"/>
<path d="M94.1395 273.44C94.6339 273.44 95.1283 273.242 95.5237 272.846C95.6226 272.352 95.7215 271.957 95.8204 271.462C95.9192 271.166 95.9192 270.968 96.0181 270.671C95.7215 269.979 95.0294 269.485 94.1395 269.485C93.052 269.485 92.1621 270.375 92.1621 271.462C92.1621 272.55 93.052 273.44 94.1395 273.44Z" fill="#C8CEE3"/>
<path d="M85.2411 309.033C86.3332 309.033 87.2185 308.148 87.2185 307.056C87.2185 305.964 86.3332 305.079 85.2411 305.079C84.149 305.079 83.2637 305.964 83.2637 307.056C83.2637 308.148 84.149 309.033 85.2411 309.033Z" fill="#C8CEE3"/>
<path d="M89.6903 300.135C90.7824 300.135 91.6678 299.25 91.6678 298.158C91.6678 297.066 90.7824 296.18 89.6903 296.18C88.5982 296.18 87.7129 297.066 87.7129 298.158C87.7129 299.25 88.5982 300.135 89.6903 300.135Z" fill="#C8CEE3"/>
<path d="M80.7919 300.135C81.884 300.135 82.7693 299.25 82.7693 298.158C82.7693 297.066 81.884 296.18 80.7919 296.18C79.6998 296.18 78.8145 297.066 78.8145 298.158C78.8145 299.25 79.6998 300.135 80.7919 300.135Z" fill="#C8CEE3"/>
<path d="M92.8542 289.259C92.9531 288.666 92.9531 288.172 93.0519 287.578C92.4587 287.974 92.0632 288.567 92.0632 289.259C92.0632 289.852 92.261 290.347 92.6565 290.643C92.8542 290.248 92.8542 289.754 92.8542 289.259Z" fill="#C8CEE3"/>
<path d="M94.1395 322.876C93.052 322.876 92.1621 323.765 92.1621 324.853C92.1621 325.347 92.3599 325.842 92.6565 326.237C93.1508 326.435 93.6452 326.633 94.2384 326.83C95.326 326.732 96.117 325.941 96.117 324.853C96.117 323.765 95.2271 322.876 94.1395 322.876Z" fill="#C8CEE3"/>
<path d="M89.6903 317.932C90.7824 317.932 91.6678 317.047 91.6678 315.955C91.6678 314.862 90.7824 313.977 89.6903 313.977C88.5982 313.977 87.7129 314.862 87.7129 315.955C87.7129 317.047 88.5982 317.932 89.6903 317.932Z" fill="#C8CEE3"/>
<path d="M80.792 313.977C80.6931 313.977 80.4954 313.977 80.3965 313.977C80.4954 314.274 80.6931 314.471 80.792 314.768C81.2863 315.658 81.7807 316.449 82.275 317.24C82.5717 316.844 82.7694 316.449 82.7694 315.955C82.7694 314.867 81.8796 313.977 80.792 313.977Z" fill="#C8CEE3"/>
<path d="M94.1395 309.033C94.6339 309.033 95.0294 308.836 95.4249 308.539C95.1283 308.045 94.8316 307.55 94.535 307.056C94.2384 306.463 94.0407 305.771 93.7441 305.079C92.8542 305.276 92.0632 306.067 92.0632 307.056C92.1621 308.144 93.0519 309.033 94.1395 309.033Z" fill="#C8CEE3"/>
<path d="M75.8483 164.681C75.354 164.78 74.8596 164.977 74.4641 165.076C74.6619 165.966 75.4528 166.658 76.4415 166.658C77.5291 166.658 78.419 165.768 78.419 164.681C78.419 164.483 78.419 164.285 78.3201 164.088C77.4303 164.285 76.6393 164.483 75.8483 164.681Z" fill="#C8CEE3"/>
<path d="M76.3427 180.5C75.4528 180.5 74.7607 181.094 74.4641 181.786C75.4528 181.39 76.3427 181.094 77.3314 180.797C77.0348 180.599 76.7382 180.5 76.3427 180.5Z" fill="#C8CEE3"/>
<path d="M67.444 184.455C68.5361 184.455 69.4214 183.57 69.4214 182.478C69.4214 181.386 68.5361 180.5 67.444 180.5C66.3519 180.5 65.4666 181.386 65.4666 182.478C65.4666 183.57 66.3519 184.455 67.444 184.455Z" fill="#C8CEE3"/>
<path d="M71.8934 175.557C72.9856 175.557 73.8709 174.671 73.8709 173.579C73.8709 172.487 72.9856 171.602 71.8934 171.602C70.8013 171.602 69.916 172.487 69.916 173.579C69.916 174.671 70.8013 175.557 71.8934 175.557Z" fill="#C8CEE3"/>
<path d="M62.995 175.557C64.0871 175.557 64.9724 174.671 64.9724 173.579C64.9724 172.487 64.0871 171.602 62.995 171.602C61.9029 171.602 61.0176 172.487 61.0176 173.579C61.0176 174.671 61.9029 175.557 62.995 175.557Z" fill="#C8CEE3"/>
<path d="M77.0347 287.479C76.9358 288.073 76.9358 288.666 76.8369 289.358C76.738 290.05 76.738 290.643 76.738 291.335C77.6279 291.138 78.32 290.347 78.32 289.358C78.32 288.468 77.7268 287.677 77.0347 287.479Z" fill="#C8CEE3"/>
<path d="M77.5291 305.573C77.6279 306.067 77.7268 306.562 77.9245 307.155C78.0234 307.452 78.0234 307.748 78.1223 308.045C78.2212 307.748 78.32 307.452 78.32 307.155C78.32 306.463 78.0234 305.87 77.5291 305.573Z" fill="#C8CEE3"/>
<path d="M58.5458 184.455C59.6379 184.455 60.5232 183.57 60.5232 182.478C60.5232 181.386 59.6379 180.5 58.5458 180.5C57.4537 180.5 56.5684 181.386 56.5684 182.478C56.5684 183.57 57.4537 184.455 58.5458 184.455Z" fill="#C8CEE3"/>
<path d="M49.6474 184.455C50.7395 184.455 51.6248 183.57 51.6248 182.478C51.6248 181.386 50.7395 180.5 49.6474 180.5C48.5552 180.5 47.6699 181.386 47.6699 182.478C47.6699 183.57 48.5552 184.455 49.6474 184.455Z" fill="#C8CEE3"/>
<path d="M56.0738 173.678C55.184 174.271 54.393 174.865 53.5032 175.458C53.7009 175.557 53.8987 175.557 54.0964 175.557C55.184 175.557 55.975 174.766 56.0738 173.678Z" fill="#C8CEE3"/>
<path d="M47.6699 200.275C47.6699 200.868 47.9665 201.461 48.4609 201.857C48.8564 201.362 49.3507 200.769 49.7462 200.275C50.1417 199.78 50.5372 199.286 51.0316 198.89C50.6361 198.594 50.2406 198.297 49.6474 198.297C48.5598 198.297 47.6699 199.187 47.6699 200.275Z" fill="#C8CEE3"/>
<path d="M54.0966 193.354C55.1887 193.354 56.074 192.468 56.074 191.376C56.074 190.284 55.1887 189.399 54.0966 189.399C53.0045 189.399 52.1191 190.284 52.1191 191.376C52.1191 192.468 53.0045 193.354 54.0966 193.354Z" fill="#C8CEE3"/>
<path d="M45.1981 193.354C46.2902 193.354 47.1756 192.468 47.1756 191.376C47.1756 190.284 46.2902 189.399 45.1981 189.399C44.106 189.399 43.2207 190.284 43.2207 191.376C43.2207 192.468 44.106 193.354 45.1981 193.354Z" fill="#C8CEE3"/>
<path d="M40.7489 202.252C41.841 202.252 42.7264 201.367 42.7264 200.275C42.7264 199.183 41.841 198.297 40.7489 198.297C39.6568 198.297 38.7715 199.183 38.7715 200.275C38.7715 201.367 39.6568 202.252 40.7489 202.252Z" fill="#C8CEE3"/>
<path d="M31.8507 198.297C31.653 198.297 31.4552 198.297 31.2575 198.396C30.7631 198.989 30.3677 199.681 29.9722 200.275C29.9722 201.362 30.862 202.252 31.9496 202.252C33.0372 202.252 33.927 201.362 33.927 200.275C33.8282 199.187 32.9383 198.297 31.8507 198.297Z" fill="#C8CEE3"/>
<path d="M35.311 193.057C35.6077 193.255 35.9043 193.354 36.2998 193.354C37.3873 193.354 38.2772 192.464 38.2772 191.376C38.2772 190.882 38.0794 190.387 37.7828 190.091C36.893 191.08 36.102 192.068 35.311 193.057Z" fill="#C8CEE3"/>
<path d="M31.8505 220.049C32.9426 220.049 33.8279 219.164 33.8279 218.072C33.8279 216.979 32.9426 216.094 31.8505 216.094C30.7584 216.094 29.873 216.979 29.873 218.072C29.873 219.164 30.7584 220.049 31.8505 220.049Z" fill="#C8CEE3"/>
<path d="M44.0117 207.591C43.7151 207.789 43.4185 208.184 43.3196 208.58C43.5173 208.283 43.8139 207.888 44.0117 207.591Z" fill="#C8CEE3"/>
<path d="M36.2997 211.151C37.3918 211.151 38.2771 210.265 38.2771 209.173C38.2771 208.081 37.3918 207.196 36.2997 207.196C35.2076 207.196 34.3223 208.081 34.3223 209.173C34.3223 210.265 35.2076 211.151 36.2997 211.151Z" fill="#C8CEE3"/>
<path d="M27.4013 211.151C28.4934 211.151 29.3787 210.265 29.3787 209.173C29.3787 208.081 28.4934 207.196 27.4013 207.196C26.3092 207.196 25.4238 208.081 25.4238 209.173C25.4238 210.265 26.3092 211.151 27.4013 211.151Z" fill="#C8CEE3"/>
<path d="M27.4013 228.947C28.4934 228.947 29.3787 228.062 29.3787 226.97C29.3787 225.878 28.4934 224.993 27.4013 224.993C26.3092 224.993 25.4238 225.878 25.4238 226.97C25.4238 228.062 26.3092 228.947 27.4013 228.947Z" fill="#C8CEE3"/>
<path d="M22.952 220.049C24.0442 220.049 24.9295 219.164 24.9295 218.072C24.9295 216.979 24.0442 216.094 22.952 216.094C21.8599 216.094 20.9746 216.979 20.9746 218.072C20.9746 219.164 21.8599 220.049 22.952 220.049Z" fill="#C8CEE3"/>
<path d="M22.952 237.846C24.0442 237.846 24.9295 236.961 24.9295 235.868C24.9295 234.776 24.0442 233.891 22.952 233.891C21.8599 233.891 20.9746 234.776 20.9746 235.868C20.9746 236.961 21.8599 237.846 22.952 237.846Z" fill="#C8CEE3"/>
<path d="M14.0534 237.846C15.1455 237.846 16.0308 236.961 16.0308 235.868C16.0308 234.776 15.1455 233.891 14.0534 233.891C12.9613 233.891 12.0759 234.776 12.0759 235.868C12.0759 236.961 12.9613 237.846 14.0534 237.846Z" fill="#C8CEE3"/>
<path d="M18.5026 228.947C19.5947 228.947 20.48 228.062 20.48 226.97C20.48 225.878 19.5947 224.993 18.5026 224.993C17.4105 224.993 16.5251 225.878 16.5251 226.97C16.5251 228.062 17.4105 228.947 18.5026 228.947Z" fill="#C8CEE3"/>
<path d="M14.0534 255.643C15.1455 255.643 16.0308 254.757 16.0308 253.665C16.0308 252.573 15.1455 251.688 14.0534 251.688C12.9613 251.688 12.0759 252.573 12.0759 253.665C12.0759 254.757 12.9613 255.643 14.0534 255.643Z" fill="#C8CEE3"/>
<path d="M18.5026 246.744C19.5947 246.744 20.48 245.859 20.48 244.767C20.48 243.675 19.5947 242.789 18.5026 242.789C17.4105 242.789 16.5251 243.675 16.5251 244.767C16.5251 245.859 17.4105 246.744 18.5026 246.744Z" fill="#C8CEE3"/>
<path d="M9.60414 246.744C10.6962 246.744 11.5816 245.859 11.5816 244.767C11.5816 243.675 10.6962 242.789 9.60414 242.789C8.51204 242.789 7.62671 243.675 7.62671 244.767C7.62671 245.859 8.51204 246.744 9.60414 246.744Z" fill="#C8CEE3"/>
<path d="M9.60414 264.541C10.6962 264.541 11.5816 263.656 11.5816 262.564C11.5816 261.472 10.6962 260.586 9.60414 260.586C8.51204 260.586 7.62671 261.472 7.62671 262.564C7.62671 263.656 8.51204 264.541 9.60414 264.541Z" fill="#C8CEE3"/>
<path d="M5.15492 255.643C6.24703 255.643 7.13236 254.757 7.13236 253.665C7.13236 252.573 6.24703 251.688 5.15492 251.688C4.06282 251.688 3.17749 252.573 3.17749 253.665C3.17749 254.757 4.06282 255.643 5.15492 255.643Z" fill="#C8CEE3"/>
<path d="M0.70579 260.586C0.508046 260.586 0.409175 260.586 0.211431 260.685C-0.085184 262.069 -0.085184 263.454 0.310303 264.541C0.409175 264.541 0.508046 264.541 0.70579 264.541C1.79338 264.541 2.68322 263.651 2.68322 262.564C2.68322 261.476 1.79338 260.586 0.70579 260.586Z" fill="#C8CEE3"/>
</svg>
