<svg width="1440" height="602" viewBox="0 0 1440 602" fill="none" xmlns="http://www.w3.org/2000/svg">
<mask id="mask0" mask-type="alpha" maskUnits="userSpaceOnUse" x="-80" y="0" width="1661" height="602">
<path d="M692.5 565.5C241.7 630.3 1.33333 592.5 -62.5 565.5L-80 0L1520.5 13C1559.67 185.167 1619.2 523.9 1544 501.5C1450 473.5 1256 484.5 692.5 565.5Z" fill="#374054"/>
</mask>
<g mask="url(#mask0)">
<path d="M692.5 565.5C241.7 630.3 1.33333 592.5 -62.5 565.5L-80 0L1520.5 13C1559.67 185.167 1619.2 523.9 1544 501.5C1450 473.5 1256 484.5 692.5 565.5Z" fill="#374054"/>
<path opacity="0.75" d="M1406.51 182.142C1399.57 198.667 1386.43 216.258 1373.62 229.905C1361.88 242.379 1333.38 250.055 1316.19 248.882C1279.36 246.43 1276.79 210.928 1242.52 197.388C1228.97 192.057 1213.91 190.138 1201.21 182.888C1176.44 168.922 1166.09 138.004 1166.51 109.645C1166.94 74.4619 1181.25 39.4926 1205.69 14.1185C1226.62 -7.844 1257.47 -22.9832 1287.15 -16.4797C1303.38 -12.8549 1317.79 -3.15299 1334.12 0.0454235C1350.99 3.35045 1369.03 -0.487644 1385.47 4.94966C1405.12 11.4531 1418.25 30.1105 1425.72 49.4077C1433.3 69.0246 1442.27 94.1855 1443.44 115.082C1444.4 132.993 1432.87 147.066 1421.24 159.433C1415.37 165.617 1407.68 173.186 1406.29 182.035" fill="#2D3445"/>
<g opacity="0.75">
<path d="M215.213 507.991C219.608 494.548 223.878 480.979 228.273 467.535C230.534 460.751 234.678 455.097 239.45 449.82C250.501 437.508 263.436 427.582 278.757 421.049C288.553 416.903 298.6 416.023 309.023 418.033C321.707 420.546 334.139 423.562 346.321 427.708C362.898 433.487 378.847 440.774 392.786 451.579C401.075 457.987 408.108 465.4 413.256 474.571C416.396 480.099 418.28 486.13 419.912 492.286C425.061 511.258 426.819 530.481 424.685 550.081C423.429 561.514 420.917 572.696 416.145 583.124C413.508 589.029 410.117 594.306 405.722 598.954C388.642 616.921 370.558 633.756 351.972 650.215C334.767 665.418 317.311 680.243 298.474 693.435C290.437 699.089 282.274 704.24 273.357 708.261C268.962 710.271 264.943 710.773 260.171 709.14C255.65 707.632 252.008 705.496 248.618 702.104C234.427 687.404 220.236 672.83 207.552 657C203.282 651.723 199.515 646.069 195.622 640.541C191.478 634.761 190.096 628.228 190.598 621.192C191.226 611.644 192.482 602.095 194.492 592.798C197.129 580.108 199.892 567.419 202.906 554.729C205.166 545.306 207.803 535.883 210.315 526.46C211.948 520.304 213.831 514.148 215.589 507.866C215.338 508.117 215.338 507.991 215.213 507.991Z" fill="#2D3445"/>
</g>
<path d="M1133.95 99.7267C1133.84 99.3996 1133.84 99.1815 1133.73 98.8544C1133.62 99.1815 1133.51 99.5085 1133.29 100.163C1133.51 100.054 1133.73 99.9447 1133.95 99.7267Z" fill="#5B627D"/>
<path d="M1194.32 180.074C1195.73 180.619 1196.82 180.183 1198.02 179.856C1199.11 179.529 1200.2 179.311 1201.29 178.984C1199.66 178.112 1198.13 177.131 1196.49 176.15C1195.84 177.131 1195.19 178.112 1194.53 179.093C1194.53 179.42 1194.42 179.747 1194.32 180.074Z" fill="#5B627D"/>
<path d="M1207.5 54.81C1208.37 54.7009 1209.14 54.5919 1210.01 54.2649C1213.82 52.6296 1217.2 50.34 1219.81 47.0694C1220.25 46.5243 1220.58 45.8702 1220.8 45.2161C1221.01 44.2349 1220.36 43.6897 1219.49 44.0168C1218.73 44.2348 1218.07 44.6709 1217.42 45.107C1215.46 46.3062 1213.39 47.6145 1211.42 48.7047C1210.44 49.2498 1209.46 49.5768 1208.48 50.0129C1208.37 49.9039 1208.26 49.7948 1208.16 49.6858C1208.7 48.3775 1209.35 47.1785 1210.23 46.0883C1212.62 42.8177 1214.48 39.22 1217.53 36.4945C1217.64 36.3855 1217.74 36.2764 1217.74 36.1674C1218.4 35.1862 1218.07 34.096 1217.2 33.4418C1216.22 32.7877 1215.35 32.8968 1214.48 33.769C1210.88 37.5847 1207.94 41.8363 1205.43 46.4152C1204.67 47.7234 1204.12 49.2497 1203.8 50.776C1203.14 53.1744 1204.99 55.137 1207.5 54.81Z" fill="#5B627D"/>
<path d="M1186.14 98.4182C1185.05 100.599 1183.09 102.125 1182.44 104.523C1181.89 106.267 1180.91 107.903 1180.48 109.538C1179.17 114.008 1181.89 116.733 1186.36 115.534C1190.17 114.553 1193.44 112.7 1196.5 110.301C1198.24 108.993 1199.76 107.576 1200.09 105.286C1199.22 104.305 1198.67 105.068 1198.02 105.395C1194.42 107.14 1190.83 108.884 1187.12 110.628C1186.25 111.064 1185.27 111.064 1184.18 111.391C1184.18 110.737 1184.07 110.301 1184.18 109.974C1184.62 108.884 1185.05 107.794 1185.6 106.813C1186.91 104.741 1188.21 102.67 1189.63 100.599C1190.72 99.0723 1189.96 98.2002 1188.87 97.328C1188.1 96.7829 1186.69 97.219 1186.14 98.4182Z" fill="#5B627D"/>
<path d="M1133.4 60.6971C1133.62 60.4791 1133.62 59.716 1133.4 59.716C1133.07 59.498 1132.53 59.3888 1132.2 59.6069C1131.55 60.043 1130.79 60.479 1130.24 60.9151C1129.91 61.1331 1129.59 61.4601 1129.15 61.6782C1127.08 63.4225 1125.12 65.1669 1123.16 66.9113C1122.72 67.3474 1122.18 67.5656 1121.74 67.8926C1121.63 67.7836 1121.52 67.6744 1121.41 67.6744C1121.52 67.2383 1121.52 66.6934 1121.74 66.2573C1123.38 63.2047 1125.12 60.2611 1126.75 57.2085C1127.08 56.6633 1127.52 56.1182 1127.84 55.5731C1128.28 54.81 1128.39 54.1557 1127.63 53.5016C1126.86 52.8474 1126.1 52.6296 1125.34 53.3927C1124.36 54.3739 1123.16 55.355 1122.39 56.5542C1120.11 60.261 1118.36 64.2948 1116.95 68.3286C1116.62 69.2008 1116.51 70.182 1116.62 71.0541C1116.84 73.4526 1118.69 74.4339 1120.76 73.3437C1121.74 72.7986 1122.83 72.1444 1123.59 71.3813C1125.77 69.4189 1127.84 67.3475 1129.8 65.1671C1130.13 64.84 1130.46 64.5128 1130.79 64.1857C1131.98 63.0955 1132.64 61.8963 1133.4 60.6971Z" fill="#5B627D"/>
<path d="M1176.01 63.6406C1176.88 63.3135 1177.75 62.7685 1178.62 62.3324C1179.82 61.4602 1181.02 60.4792 1182.22 59.716C1184.4 58.4078 1186.14 56.4454 1188 54.8101C1188.87 54.047 1189.09 53.0658 1188.65 52.6297C1187.89 51.9756 1187.12 52.5205 1186.47 52.9565C1183.42 54.7009 1180.37 56.3364 1177.32 58.0807C1176.99 58.1897 1176.66 58.2985 1175.9 58.4076C1176.34 57.6444 1176.55 57.2083 1176.77 56.7723C1178.52 53.5016 1180.26 50.122 1182.98 47.5055C1183.64 46.8514 1183.53 45.4343 1182.77 44.6711C1182.11 43.908 1181.13 43.799 1180.37 44.4532C1179.6 45.1073 1178.95 45.8704 1178.41 46.6336C1176.88 49.141 1175.25 51.7574 1173.83 54.3739C1173.18 55.5731 1172.63 56.9905 1172.09 58.2987C1171.76 59.0618 1171.65 59.8248 1171.54 60.588C1171.32 63.0954 1173.39 64.6218 1176.01 63.6406Z" fill="#5B627D"/>
<path d="M1140.59 70.5092C1141.68 70.0731 1142.77 69.419 1143.75 68.6559C1145.17 67.6746 1146.48 66.5843 1147.79 65.494C1149.42 64.1858 1150.95 62.7687 1152.47 61.3514C1153.45 60.4792 1153.67 59.7158 1153.13 58.9527C1152.47 57.8624 1151.6 58.6258 1150.95 58.8438C1148.77 59.825 1146.7 61.1333 1144.84 62.6596C1144.08 63.2047 1143.32 63.7498 1142.56 64.2949C1142.45 63.8588 1142.34 63.7497 1142.34 63.6407C1142.34 63.4227 1142.45 63.3136 1142.56 63.0956C1144.3 59.9339 1146.26 56.9904 1148.77 54.4829C1149.09 54.1558 1149.53 53.8288 1149.86 53.3927C1150.4 52.7385 1150.18 51.4302 1149.64 50.8851C1148.98 50.2309 1147.9 50.1219 1147.13 50.8851C1146.26 51.6482 1145.5 52.5205 1144.73 53.3927C1142.34 56.4453 1140.05 59.607 1138.52 63.2047C1137.76 64.9491 1136.89 66.5844 1137.32 68.6559C1137.76 70.7273 1138.85 71.2723 1140.59 70.5092Z" fill="#5B627D"/>
<path d="M1117.82 91.9858C1118.47 90.6775 1117.93 89.6965 1116.51 89.3694C1115.42 89.0423 1114.77 89.5873 1114.11 90.3505C1110.3 94.6023 1107.58 99.6172 1105.51 104.85C1105.07 105.94 1104.85 107.14 1104.96 108.23C1105.07 110.41 1107.03 111.282 1108.88 110.192C1112.04 108.23 1114.66 105.613 1117.27 102.997C1118.04 102.234 1118.15 101.362 1117.27 100.162C1115.09 101.362 1112.92 102.561 1110.74 103.869C1110.63 103.76 1110.52 103.651 1110.41 103.433C1111.93 99.9442 1113.9 96.6736 1116.4 93.6211C1117.06 93.185 1117.6 92.6399 1117.82 91.9858Z" fill="#5B627D"/>
<path d="M1188.1 147.259C1185.71 149.331 1182.98 150.748 1180.04 151.947C1179.06 152.383 1178.08 152.929 1176.88 152.602C1176.77 151.184 1177.21 150.094 1177.75 149.004C1178.73 147.041 1179.82 145.079 1180.8 143.117C1181.24 142.354 1181.57 141.481 1181.78 140.609C1182 139.737 1181.46 138.538 1180.8 138.32C1179.93 137.993 1179.39 138.538 1178.73 139.083C1178.52 139.301 1178.41 139.519 1178.3 139.737C1176.44 141.808 1175.36 144.425 1174.16 147.041C1173.28 148.786 1172.85 150.748 1172.96 152.71C1173.18 155.545 1175.25 157.398 1178.08 156.962C1179.06 156.853 1180.04 156.526 1181.02 156.09C1183.53 155.109 1185.6 153.365 1187.56 151.62C1189.19 150.203 1189.63 148.132 1190.94 146.169C1189.41 145.951 1188.76 146.714 1188.1 147.259Z" fill="#5B627D"/>
<path d="M1237.25 135.05C1238.23 134.832 1239.1 134.504 1240.08 134.177C1243.03 133.087 1245.1 131.016 1246.51 128.29C1246.73 127.854 1246.95 127.418 1246.84 126.982C1246.84 126.437 1246.73 125.782 1246.29 125.455C1245.75 125.019 1245.31 125.565 1244.77 125.892C1243.46 126.873 1242.26 127.963 1240.85 128.835C1239.21 129.925 1237.36 130.362 1235.29 130.689C1234.85 129.489 1235.18 128.726 1235.72 128.072C1237.14 126.11 1238.45 124.147 1239.87 122.185C1240.63 121.094 1240.63 119.459 1239.97 118.805C1239.1 117.933 1238.01 118.042 1236.92 119.35C1235.62 120.877 1234.53 122.403 1233.33 123.929C1232.13 125.456 1231.58 127.2 1231.04 129.053C1230.17 132.215 1233 136.249 1237.25 135.05Z" fill="#5B627D"/>
<path d="M1159.88 87.4069C1159.23 89.2602 1160.43 92.5309 1163.26 92.4219C1164.35 92.3128 1165.44 92.3128 1166.42 91.5497C1167.4 90.7865 1168.49 89.9143 1169.58 89.2602C1171.32 88.17 1171.65 86.3167 1172.52 84.6815C1169.8 85.7717 1167.51 87.6249 1164.35 87.8429C1164.35 87.4068 1164.24 87.298 1164.35 87.1889C1164.46 86.8619 1164.57 86.5348 1164.78 86.3167C1167.18 82.8282 1169.69 79.4486 1172.74 76.5051C1173.18 76.069 1173.61 75.742 1173.94 75.1969C1174.48 74.4338 1174.48 73.5617 1173.83 72.7986C1173.28 72.1445 1172.52 71.8172 1171.76 72.0353C1171.11 72.2533 1170.34 72.6895 1169.8 73.2346C1167.62 75.742 1165.66 78.3584 1163.59 80.8658C1161.84 82.9372 1160.64 85.0085 1159.88 87.4069Z" fill="#5B627D"/>
<path d="M1141.9 96.238C1142.23 95.6929 1142.12 95.2567 1141.36 95.0386C1139.07 96.5649 1136.67 98.0911 1133.95 99.8355C1133.73 99.9445 1133.51 100.163 1133.29 100.272C1133.51 99.6176 1133.62 99.2906 1133.73 98.9635C1133.73 98.9635 1133.73 98.9634 1133.73 98.8544C1134.93 96.892 1136.13 94.8206 1137.32 92.8582C1137.98 91.768 1137.87 90.7868 1137.22 89.8056C1136.67 88.9334 1136.02 88.9335 1135.25 89.5876C1134.82 90.0237 1134.38 90.4597 1134.16 90.8958C1133.62 91.768 1133.07 92.6401 1132.53 93.6213C1131.11 95.9108 1129.7 98.2004 1128.39 100.599C1127.74 101.798 1127.63 103.324 1127.52 104.741C1127.41 106.159 1128.17 106.813 1129.59 107.14C1131.33 107.576 1132.53 106.595 1133.62 105.614C1134.16 105.069 1134.71 104.633 1135.25 104.087C1136.67 102.779 1137.98 101.471 1139.39 100.163C1140.59 98.9633 1141.14 97.5462 1141.9 96.238Z" fill="#5B627D"/>
<path d="M1156.39 158.489C1156.83 157.616 1157.27 156.635 1157.27 155.545C1157.37 154.019 1156.18 153.364 1154.98 154.128C1154 154.673 1153.02 155.545 1152.47 156.417C1150.4 159.361 1148.55 162.413 1150.62 166.338C1151.38 167.755 1152.69 168.519 1153.89 169.391C1155.09 170.263 1156.39 170.263 1157.81 169.936C1160.75 169.282 1162.82 167.429 1164.78 165.466C1165.98 164.267 1165.98 162.85 1165 161.323C1164.57 161.541 1164.02 161.759 1163.48 162.086C1162.61 162.631 1161.73 163.286 1160.75 163.613C1159.23 164.267 1157.59 164.812 1155.96 165.03C1154.21 165.248 1153.78 164.485 1154.21 162.741C1154.54 161.105 1155.63 159.906 1156.39 158.489Z" fill="#5B627D"/>
<path d="M1251.85 93.5122C1253.92 93.5122 1255.99 93.1852 1257.95 92.422C1260.13 91.5499 1262.1 90.5685 1262.42 87.843C1261.77 87.1889 1261.01 87.5159 1260.24 87.843C1257.63 88.9332 1254.79 88.8243 1251.96 89.0423C1250.54 89.1513 1250.11 88.2793 1250.54 86.9711C1250.98 85.8809 1251.42 84.7905 1252.07 83.8093C1253.27 82.065 1254.58 80.3207 1255.88 78.6854C1257.19 77.0501 1256.97 75.742 1255.01 74.4338C1254.69 74.6518 1254.47 74.7607 1254.25 74.8697C1251.2 77.3772 1249.24 80.6478 1247.71 84.1364C1247.28 85.2266 1246.84 86.426 1246.84 87.5162C1246.84 90.7867 1248.04 93.5122 1251.85 93.5122Z" fill="#5B627D"/>
<path d="M1133.51 123.602C1134.27 122.948 1134.38 121.967 1133.84 121.313C1133.4 120.767 1132.64 120.331 1131.98 120.222C1131.33 120.113 1130.57 120.549 1130.13 120.985C1127.84 122.839 1126.21 125.019 1125.12 127.745C1124.36 129.707 1125.01 131.343 1126.1 132.869C1127.08 134.177 1128.61 133.523 1129.91 133.414C1130.02 133.414 1130.13 133.414 1130.24 133.305C1133.18 132.106 1136.34 131.561 1139.07 129.707C1139.5 129.38 1140.05 129.38 1140.48 129.162C1141.03 128.944 1141.57 128.726 1142.01 128.399C1142.99 127.745 1143.21 127.091 1142.88 126.328C1142.45 125.346 1141.46 124.692 1140.37 124.91C1139.72 125.128 1138.96 125.346 1138.41 125.674C1136.78 126.655 1135.14 127.854 1133.4 128.617C1131.88 129.38 1130.24 130.034 1127.84 129.816C1128.61 128.726 1129.04 127.963 1129.7 127.309C1130.89 126.001 1132.2 124.801 1133.51 123.602Z" fill="#5B627D"/>
<path d="M1203.91 178.33C1203.03 178.548 1202.16 178.766 1201.4 178.984C1200.31 179.311 1199.22 179.638 1198.13 179.856C1196.93 180.183 1195.73 180.619 1194.42 180.074C1194.53 179.747 1194.64 179.42 1194.75 179.093C1195.41 178.112 1196.06 177.131 1196.71 176.15C1197.15 175.495 1197.58 174.842 1197.91 174.187C1198.46 173.206 1199 172.334 1199.44 171.244C1199.76 170.263 1199.33 168.845 1198.57 168.409C1197.48 167.755 1196.82 168.627 1196.17 169.063C1195.62 169.499 1195.19 170.153 1194.86 170.699C1194.21 171.68 1193.55 172.661 1192.9 173.642C1192.9 173.642 1192.9 173.751 1192.79 173.751C1192.03 175.168 1191.26 176.695 1190.5 178.221C1188.98 181.274 1191.81 185.089 1195.41 184.435C1198.57 183.89 1201.51 183.018 1204.01 181.055C1204.23 180.946 1204.45 180.728 1204.56 180.51C1204.78 180.183 1205.1 179.856 1205.21 179.529C1205.65 178.766 1204.99 178.003 1203.91 178.33Z" fill="#5B627D"/>
<path d="M1203.69 82.5009C1204.34 82.7189 1205.1 82.6099 1205.76 82.7189V82.828C1207.61 82.3919 1209.68 82.2828 1211.42 81.6287C1213.28 80.9746 1215.24 80.2114 1216.55 78.5762C1217.09 77.9221 1217.42 77.2682 1216.76 76.6141C1216.44 76.287 1215.67 76.2869 1215.24 76.5049C1212.3 77.7041 1209.14 77.9222 1206.08 78.4673C1203.25 79.0124 1202.27 77.268 1203.47 74.7605C1203.58 74.4335 1203.8 74.2157 1203.9 73.8886C1204.67 72.6894 1205.54 71.49 1206.3 70.3998C1207.17 69.2006 1207.06 68.2195 1206.19 67.4564C1205.21 66.5843 1204.34 66.6933 1203.25 67.7835C1201.07 69.9639 1199.65 72.5802 1199.22 75.6327C1198.89 78.6852 1200.2 81.7378 1203.69 82.5009Z" fill="#5B627D"/>
<path d="M1144.62 144.643C1142.88 145.406 1141.03 146.278 1139.29 146.933C1138.85 147.042 1138.2 146.932 1137.87 146.714C1137.65 146.605 1137.76 145.842 1137.98 145.515C1138.3 144.752 1138.74 143.989 1139.18 143.335C1139.72 142.245 1140.37 141.154 1140.92 140.064C1141.36 139.083 1141.03 138.211 1140.27 137.556C1139.61 136.902 1138.96 137.447 1138.3 137.774C1137.76 137.993 1137.21 138.32 1136.89 138.756C1135.36 140.609 1134.16 142.789 1133.4 145.079C1131.88 149.985 1136.23 153.038 1139.39 151.947C1142.12 151.075 1144.52 149.876 1146.48 147.696C1147.46 146.605 1147.57 145.297 1146.91 143.553C1145.93 143.88 1145.28 144.316 1144.62 144.643Z" fill="#5B627D"/>
<path d="M1218.07 102.67C1216.44 104.741 1214.69 106.813 1213.93 109.429C1213.5 110.737 1212.95 112.155 1212.84 113.572C1212.62 116.297 1214.8 118.15 1217.42 117.823C1218.4 117.714 1219.27 117.278 1220.14 116.951C1222.87 115.752 1224.83 113.681 1226.46 111.064C1223.08 111.064 1220.36 113.681 1216.66 113.354C1216.66 112.918 1216.66 112.591 1216.76 112.264C1217.53 109.756 1219.05 107.794 1220.8 105.94C1221.67 104.959 1222.54 103.869 1222.54 102.561C1222.54 102.016 1222.21 101.253 1221.78 100.926C1221.34 100.708 1220.47 100.817 1220.03 101.144C1219.27 101.471 1218.62 102.016 1218.07 102.67Z" fill="#5B627D"/>
<path d="M1112.37 158.598C1112.48 158.052 1112.7 157.616 1112.8 157.071C1113.02 156.199 1113.35 155.327 1113.46 154.455C1113.57 153.474 1113.13 152.601 1112.26 152.165C1111.28 151.62 1110.73 152.492 1110.08 153.038C1108.45 154.455 1108.55 156.417 1108.23 158.27C1107.68 162.74 1110.52 165.793 1114.98 165.902C1118.69 166.011 1122.18 164.703 1125.55 163.285C1126.1 163.067 1126.43 162.304 1127.19 161.541C1126.21 161.432 1125.66 161.323 1125.12 161.323C1121.85 161.432 1118.47 161.65 1115.2 161.868C1112.91 161.977 1111.93 160.887 1112.37 158.598Z" fill="#5B627D"/>
<path d="M1238.89 66.1487C1241.72 65.3855 1244.12 63.8592 1246.19 61.7877C1246.84 61.1336 1247.39 60.4796 1246.95 59.1713C1246.08 59.3893 1245.21 59.6074 1244.33 59.7164C1243.46 59.8254 1242.59 59.9342 1241.17 60.0433C1242.05 58.735 1242.7 57.8629 1243.24 56.8817C1243.79 55.9005 1244.44 55.0282 1244.77 54.0469C1245.21 52.6296 1244.88 52.1936 1243.79 51.6485C1242.81 51.1033 1242.26 51.7576 1241.61 52.3027C1239.21 54.5922 1237.69 57.4269 1236.05 60.2615C1235.4 61.3518 1235.29 62.4418 1235.4 63.6411C1235.4 65.7125 1236.81 66.8028 1238.89 66.1487Z" fill="#5B627D"/>
<path d="M1156.28 121.967C1157.05 120.44 1157.81 118.914 1158.57 117.497C1159.55 115.753 1160.64 114.117 1161.62 112.264C1162.17 111.283 1161.84 110.302 1161.08 109.866C1160.21 109.32 1159.34 109.429 1158.68 110.192C1156.07 113.136 1153.89 116.516 1152.8 120.331C1152.47 121.204 1152.47 122.294 1152.47 123.166C1152.58 125.238 1154.1 126.982 1155.85 127.091C1157.59 127.309 1159.23 126.764 1160.64 125.892C1161.73 125.238 1162.5 124.147 1162.5 122.512C1160.64 122.839 1159.12 123.275 1157.48 123.493C1156.17 123.711 1155.74 123.057 1156.28 121.967Z" fill="#5B627D"/>
<path d="M1081.42 112.7C1081.31 112.155 1080.99 111.392 1080.55 111.064C1079.79 110.628 1079.24 111.173 1078.81 111.828C1077.83 113.354 1076.63 114.771 1075.86 116.407C1075.21 117.606 1074.88 119.132 1074.77 120.549C1074.45 123.166 1076.63 124.91 1079.13 124.256C1081.97 123.493 1084.36 122.076 1086.54 120.222C1087.31 119.568 1087.52 118.805 1087.42 117.824C1087.31 116.625 1086.54 116.08 1085.34 116.625C1084.58 116.952 1083.93 117.388 1083.27 117.715C1082.08 118.369 1080.88 119.241 1079.46 119.459C1079.35 119.35 1079.24 119.241 1079.02 119.132C1079.46 118.26 1079.9 117.279 1080.44 116.407C1081.31 115.098 1081.64 113.899 1081.42 112.7Z" fill="#5B627D"/>
<path d="M1227.66 172.988C1228.21 171.789 1227.88 170.59 1226.68 169.5C1226.14 169.827 1225.59 170.154 1225.15 170.59C1222.98 172.661 1221.89 175.387 1220.8 178.003C1220.36 179.093 1220.36 180.401 1220.36 181.601C1220.47 183.781 1222.1 185.416 1224.28 185.416C1226.79 185.416 1228.97 184.435 1230.6 182.473C1231.26 181.71 1232.13 180.62 1231.04 179.311C1228.86 180.074 1226.68 180.947 1224.39 180.947C1224.06 179.529 1224.83 178.657 1225.37 177.676C1226.14 176.15 1227.01 174.623 1227.66 172.988Z" fill="#5B627D"/>
<path d="M1258.39 151.947C1258.72 151.184 1259.15 150.639 1259.48 149.876C1260.03 148.677 1260.57 147.368 1261.01 146.06C1261.33 144.97 1260.24 143.116 1259.26 142.898C1258.39 142.68 1257.74 143.225 1256.97 144.534C1256.32 145.624 1255.67 146.823 1255.12 148.023C1254.14 150.203 1253.6 152.492 1253.92 154.891C1254.25 156.526 1255.45 158.052 1257.08 158.161C1259.15 158.379 1261.22 158.052 1262.97 156.635C1263.73 155.981 1264.17 155.327 1264.17 154.019C1263.62 153.91 1263.08 153.692 1262.64 153.692C1261.66 153.692 1260.68 153.91 1259.7 153.91C1258.39 154.019 1257.85 153.364 1258.39 151.947Z" fill="#5B627D"/>
<path d="M1121.41 185.308C1121.85 184.327 1122.18 183.236 1122.4 182.146C1122.5 181.71 1122.18 180.947 1121.85 180.838C1121.41 180.62 1120.54 180.729 1120.22 180.947C1116.73 184 1114.33 187.597 1114.66 192.394C1114.99 197.081 1117.6 199.262 1121.63 199.589C1123.27 199.698 1123.92 199.153 1124.14 197.299C1123.59 197.081 1122.94 196.972 1122.4 196.754C1119.13 195.773 1117.82 193.484 1119.02 190.322C1119.67 188.687 1120.76 187.052 1121.41 185.308Z" fill="#5B627D"/>
<path d="M1156.94 39.6567C1158.68 40.2018 1160.32 39.8748 1161.84 39.2207C1162.39 39.0026 1162.82 38.2395 1163.15 37.5853C1163.59 36.4951 1163.04 35.841 1161.84 35.95C1160.97 36.059 1160.21 36.1679 1159.34 36.386V36.2771C1159.12 36.2771 1158.9 36.386 1158.79 36.386C1157.27 36.386 1156.83 35.6229 1157.37 34.3146C1157.48 33.9876 1157.7 33.7695 1157.81 33.4424C1159.44 30.8259 1161.08 28.3183 1163.48 26.3559C1164.68 25.3747 1164.57 24.2845 1163.37 23.4123C1162.39 22.7582 1161.41 22.8671 1160.43 23.8483C1158.03 26.0288 1156.07 28.5363 1154.76 31.6979C1153.89 33.7694 1153.89 35.7318 1154.54 37.6942C1155.09 38.6754 1155.85 39.3296 1156.94 39.6567Z" fill="#5B627D"/>
<path d="M1214.04 136.031C1214.37 135.268 1213.82 134.504 1212.95 134.613C1212.51 134.613 1212.08 134.831 1211.64 134.94C1210.01 135.377 1208.37 135.922 1206.19 135.594C1207.07 134.395 1207.72 133.632 1208.16 132.76C1208.59 131.888 1208.92 131.015 1209.14 130.143C1209.35 129.271 1208.7 128.726 1208.05 128.181C1207.39 127.745 1206.85 128.072 1206.3 128.399C1203.91 130.143 1202.38 132.324 1202.05 135.267C1201.73 137.993 1204.01 140.392 1206.74 140.174C1209.14 140.065 1211.21 138.974 1213.06 137.448C1213.49 137.339 1213.82 136.685 1214.04 136.031Z" fill="#5B627D"/>
<path d="M1169.14 181.819C1168.49 181.165 1167.51 181.056 1166.2 181.71C1165.77 181.928 1165.44 182.146 1165.11 182.473C1164.57 182.909 1163.91 183.345 1163.48 183.89C1162.17 185.416 1160.86 187.052 1160.32 189.014C1159.77 191.085 1161.62 193.375 1163.8 193.048C1167.51 192.394 1170.56 190.758 1172.74 186.943C1170.23 186.398 1168.38 187.924 1165.98 187.815C1167.07 186.616 1167.95 185.743 1168.71 184.653C1169.58 183.563 1169.69 182.473 1169.14 181.819Z" fill="#5B627D"/>
<path d="M1223.41 155.981C1221.12 156.417 1218.83 156.853 1216.55 157.18C1213.82 157.616 1213.06 156.526 1213.71 154.018C1214.15 152.383 1214.37 150.748 1214.69 149.004C1214.8 148.458 1214.69 147.913 1213.82 147.913C1213.71 148.022 1213.5 148.24 1213.28 148.349C1211.86 149.548 1211.32 151.293 1210.44 152.71C1208.81 155.435 1209.79 159.142 1212.73 160.45C1214.8 161.323 1216.76 161.432 1218.94 160.668C1221.89 159.578 1224.83 158.597 1226.9 155.872C1225.7 155.327 1224.61 155.763 1223.41 155.981Z" fill="#5B627D"/>
<path d="M1083.71 158.052C1082.29 160.996 1082.4 163.83 1084.04 166.665C1084.58 167.537 1085.35 168.191 1086.22 168.627C1087.42 169.172 1088.72 169.281 1089.92 168.954C1090.68 168.736 1091.45 168.518 1092.1 168.3C1093.63 167.646 1094.93 166.665 1095.81 165.248C1096.24 164.484 1096.57 163.722 1095.92 162.74C1095.37 162.958 1094.72 163.067 1094.17 163.285C1092.43 163.831 1090.68 164.485 1088.94 164.812C1087.74 165.03 1087.2 164.593 1087.09 163.394C1087.09 162.958 1087.2 162.522 1087.2 162.086C1087.31 161.105 1087.42 160.124 1087.52 159.143C1087.52 157.834 1086.87 156.962 1086 156.744C1085.56 156.635 1085.02 156.744 1084.58 157.071C1084.26 157.18 1083.93 157.507 1083.71 158.052Z" fill="#5B627D"/>
<path d="M1092.97 75.5241C1093.3 74.652 1092.76 73.5616 1091.88 73.1255C1091.23 72.7985 1090.68 72.9076 1090.36 73.4526C1088.94 75.851 1087.63 78.2494 1087.74 81.0838C1087.96 84.2452 1089.7 85.9895 1092.97 85.4444C1094.83 85.2264 1096.46 84.5723 1097.99 83.5912C1099.18 82.8281 1100.06 81.847 1100.6 80.6478C1100.71 80.3208 1100.82 79.7757 1100.71 79.5577C1100.49 79.3396 1100.06 79.2307 1099.62 79.3397C1098.31 79.5577 1097.11 79.9937 1095.81 80.3207C1094.39 80.6478 1092.97 80.8657 1091.56 81.0838C1090.9 80.1026 1091.23 79.3396 1091.56 78.6855C1092.1 77.5953 1092.65 76.5053 1092.97 75.5241Z" fill="#5B627D"/>
<path d="M1147.57 184.435C1147.68 183.672 1147.79 182.691 1146.8 182.037C1144.08 184.217 1142.45 186.943 1142.12 190.432C1141.9 192.721 1142.88 194.357 1144.73 195.447C1147.57 197.191 1151.93 196.646 1154.32 194.247C1154.87 193.702 1155.2 192.939 1155.63 192.285C1155.52 192.067 1155.41 191.849 1155.3 191.74C1154.32 191.849 1153.45 192.067 1152.47 192.176C1151.27 192.285 1150.18 192.612 1148.98 192.503C1145.82 192.394 1145.28 191.413 1146.48 188.469C1147.13 187.052 1147.35 185.744 1147.57 184.435Z" fill="#5B627D"/>
<path d="M1167.18 213.217C1166.85 212.017 1166.53 210.927 1166.2 209.837C1165.98 209.837 1165.87 209.728 1165.66 209.728C1165 210.6 1164.57 211.582 1163.8 212.345C1162.6 213.653 1163.04 214.743 1163.69 216.051C1164.68 217.796 1166.2 218.231 1167.94 218.122C1171.32 217.904 1174.26 216.378 1177.21 214.852C1178.51 214.089 1178.62 213.108 1177.53 212.018C1176.77 211.254 1175.9 211.036 1174.81 211.363C1173.28 211.908 1171.76 212.454 1170.23 212.999C1169.25 213.326 1168.27 213.544 1167.18 213.217Z" fill="#5B627D"/>
<path d="M1271.58 117.824C1273.76 117.824 1275.39 116.733 1276.81 115.098C1277.13 114.771 1277.24 114.117 1277.24 113.681C1277.35 112.482 1276.92 111.937 1275.61 112.264C1274.41 112.591 1273.32 112.809 1271.9 112.373C1271.9 111.828 1271.79 111.392 1271.9 110.956C1272.12 109.756 1271.36 109.102 1270.6 108.557C1270.27 108.339 1269.51 108.448 1269.29 108.775C1268.31 109.756 1267.54 111.065 1267.33 112.482C1266.78 115.207 1268.85 117.824 1271.58 117.824Z" fill="#5B627D"/>
<path d="M1085.24 192.939C1085.56 192.285 1086.11 191.631 1086.22 190.867C1086.43 189.45 1084.69 188.033 1083.49 188.796C1081.75 189.777 1080.33 191.194 1079.68 193.048C1079.46 193.702 1079.57 194.465 1079.68 195.12C1080 197.082 1081.53 197.954 1083.27 198.172C1084.25 198.281 1085.24 198.281 1086.22 198.063C1086.98 197.845 1087.74 197.518 1088.4 196.864C1088.72 196.537 1088.94 195.664 1088.72 195.228C1088.61 194.901 1087.74 194.574 1087.31 194.574C1086.98 194.574 1086.65 194.574 1086.43 194.574C1085.67 194.574 1085.02 194.356 1084.25 193.92C1084.58 193.702 1084.91 193.375 1085.24 192.939Z" fill="#5B627D"/>
<path d="M1126.54 218.777C1126.32 218.777 1125.88 219.104 1125.66 219.431C1125.12 220.194 1125.01 221.066 1125.66 221.938C1126.32 222.919 1127.3 223.247 1128.39 222.811C1130.57 221.938 1132.2 220.521 1132.86 217.796C1132.2 217.796 1131.77 217.687 1131.33 217.796C1129.7 218.232 1128.17 218.995 1126.54 218.777Z" fill="#5B627D"/>
<path d="M1099.95 134.831C1100.71 134.177 1101.69 133.741 1102.56 133.196C1102.56 133.087 1102.56 132.978 1102.56 132.869C1102.02 132.76 1101.47 132.651 1100.93 132.651C1098.2 132.542 1098.09 132.433 1097.33 129.816C1097.22 129.598 1097.33 129.271 1097.11 129.053C1096.89 128.617 1096.57 128.29 1096.35 127.854C1095.91 128.181 1095.26 128.508 1095.15 128.944C1094.61 130.797 1094.82 132.542 1096.02 134.068C1096.79 135.158 1098.86 135.703 1099.95 134.831Z" fill="#5B627D"/>
<path d="M284.659 465.844C270.271 467.09 255.511 474.443 249.309 487.528C243.976 498.62 245.092 513.076 236.409 521.8C224.626 533.639 204.781 526.66 188.284 529.277C159.88 533.639 144.748 566.664 144.5 595.577C144.5 600.935 144.872 606.793 148.469 610.781C153.058 616.015 161.493 616.015 167.57 612.775C173.648 609.534 177.989 603.677 181.958 598.069C193.742 581.245 209.122 561.43 229.339 564.172C246.332 566.415 261.588 584.734 277.341 578.129C291.109 572.397 292.349 552.332 304.132 543.359C312.815 536.754 325.218 537.751 335.513 541.241C345.808 544.73 355.482 550.587 366.149 552.706C390.708 557.691 417.252 540.493 423.825 516.191C430.399 491.89 417.003 464.099 394.429 453.257C375.824 444.284 354.862 447.524 337.497 457.494C331.048 461.233 326.955 467.464 319.637 469.084C309.342 471.327 295.822 464.971 284.659 465.844Z" stroke="#5B627D" stroke-width="3" stroke-miterlimit="10"/>
<path d="M1240.96 223.241C1246.66 224.441 1250.06 229.441 1249.06 234.941C1248.06 240.041 1242.26 243.741 1236.96 242.641C1231.56 241.441 1227.76 235.841 1228.86 230.741C1229.96 225.441 1235.36 222.041 1240.96 223.241Z" fill="#99F7B4"/>
<path d="M1210.56 245.141C1211.66 241.941 1214.06 241.041 1217.26 241.641C1220.26 242.241 1221.76 244.641 1221.36 247.341C1220.86 250.541 1218.06 251.941 1214.96 251.341C1211.76 250.841 1210.16 248.641 1210.56 245.141Z" fill="#99F7B4"/>
</g>
<path d="M209.934 420.927C211.198 417.907 214.006 416.221 216.534 414.324C216.815 414.113 217.166 414.114 217.517 414.043C218.991 413.762 220.326 414.886 220.045 416.361C219.343 419.312 218.64 422.262 216.323 424.51C214.989 425.774 213.796 427.25 212.391 428.373C210.847 429.568 208.951 428.725 208.529 426.828C208.178 425.212 208.6 423.527 209.934 420.927Z" fill="#99F7B4"/>
<path d="M201.93 479.373C201.228 480.497 200.596 481.761 199.823 482.815C199.191 483.587 198.419 484.29 197.576 484.782C195.61 485.906 193.293 484.571 193.153 482.323C192.872 477.687 196.664 472.488 199.823 471.154C201.649 470.381 203.264 471.083 203.545 473.12C203.685 474.104 203.615 475.158 203.334 476.071C202.983 477.195 202.281 478.178 201.789 479.232C201.789 479.302 201.86 479.302 201.93 479.373Z" fill="#99F7B4"/>
<path d="M174.335 451.484C176.02 451.344 177.354 451.906 177.986 453.17C178.548 454.294 178.688 455.769 178.548 457.034C178.337 458.86 177.705 460.616 177.354 462.443C177.003 464.41 175.95 465.815 174.195 466.868C171.807 466.798 170.403 465.463 170.122 463.216C169.631 458.65 170.543 454.435 174.335 451.484Z" fill="#99F7B4"/>
<path d="M180.654 428.935C179.741 430.129 178.899 431.394 177.845 432.518C176.933 433.431 175.739 433.571 174.545 433.01C173.352 432.448 172.86 431.394 172.93 430.129C172.93 429.427 173.001 428.795 173.211 428.092C174.124 425.142 175.528 422.473 177.494 420.084C177.916 419.522 178.969 419.241 179.671 419.241C180.794 419.241 181.567 420.014 181.848 421.068C182.48 423.807 181.988 426.406 180.654 428.935Z" fill="#99F7B4"/>
<path d="M183.393 479.794C184.727 484.219 182.971 487.661 180.725 490.893C179.671 492.438 177.705 492.789 176.231 491.947C174.897 491.174 174.195 489.699 174.686 488.013C175.669 484.43 177.705 481.62 181.005 479.864C181.708 479.513 182.62 479.794 183.393 479.794Z" fill="#99F7B4"/>
<path d="M209.723 448.323C208.389 449.728 206.423 451.836 204.387 453.803C203.614 454.575 202.35 454.576 201.578 453.943C201.016 453.522 200.876 452.468 200.806 451.695C200.736 451.063 200.946 450.361 201.157 449.728C202.421 446.918 204.387 444.6 206.634 442.563C207.617 441.72 208.67 441.439 209.934 441.931C210.917 442.352 211.408 444.109 210.987 445.514C210.706 446.216 210.425 446.778 209.723 448.323Z" fill="#99F7B4"/>
<path d="M230.577 463.356C228.751 465.183 226.715 467.22 224.679 469.187C224.328 469.538 223.836 469.889 223.345 469.889C222.572 469.959 221.589 469.959 220.957 469.608C220.536 469.397 220.536 468.414 220.466 467.711C220.466 467.22 220.676 466.728 220.887 466.236C222.502 463.005 225.17 460.616 227.838 458.228C227.979 458.088 228.119 458.088 228.26 458.017C229.734 457.245 231.63 458.439 231.419 460.055C231.419 461.038 230.998 462.021 230.577 463.356Z" fill="#99F7B4"/>
<path d="M225.38 489.347C226.083 484.852 229.172 482.182 232.121 479.513C232.753 478.951 234.017 478.881 235 478.81C236.264 478.81 237.247 480.286 236.685 481.339C234.789 484.711 232.893 488.153 229.383 490.19C227.978 491.033 226.785 490.963 225.38 489.347Z" fill="#99F7B4"/>
<path d="M209.723 491.384C210.706 491.665 211.408 491.806 211.97 492.087C213.866 493.07 214.217 493.913 213.585 495.74C212.672 498.339 211.197 500.587 209.091 502.413C208.599 502.835 207.967 503.186 207.336 503.467C205.791 504.169 203.965 502.905 204.246 501.289C204.597 499.322 204.878 497.285 206.212 495.599C207.406 494.335 208.389 493 209.723 491.384Z" fill="#99F7B4"/>
<path d="M190.063 456.402C192.661 458.018 193.012 460.195 191.958 462.935C191.116 465.042 189.992 466.869 188.097 468.063C186.341 469.257 184.165 468.133 184.024 466.096C183.814 463.778 185.077 461.881 186.06 459.984C186.903 458.369 187.816 456.753 190.063 456.402Z" fill="#99F7B4"/>
<path d="M235.281 435.117C236.264 437.014 236.335 438.77 235.422 440.596C234.439 442.563 233.526 444.601 231.49 445.795C230.788 446.216 229.945 446.497 229.103 446.638C227.698 446.919 226.364 445.444 226.856 444.109C228.33 440.245 230.437 436.873 234.298 434.906C234.509 434.766 234.72 434.906 235.281 435.117Z" fill="#99F7B4"/>
<path d="M197.084 431.183C195.961 432.448 194.908 433.782 193.714 434.976C192.942 435.749 191.959 435.89 190.905 435.468C189.852 434.976 189.29 434.063 189.361 433.08C189.641 429.497 191.327 426.617 194.416 424.721C196.242 423.597 198.278 425.072 198.067 427.25C197.857 428.514 197.435 429.778 197.084 431.183Z" fill="#99F7B4"/>
<path d="M191.608 446.356C190.485 447.48 189.502 448.675 188.378 449.517C187.255 450.36 185.57 449.798 185.078 448.464C183.533 444.741 185.71 440.877 189.572 439.894C190.625 439.613 192.029 440.667 192.029 441.861C192.099 443.336 191.819 444.811 191.608 446.356Z" fill="#99F7B4"/>
</svg>
